<?xml version="1.0" encoding="UTF-8"?>
<svg version="1.1" xmlns="http://www.w3.org/2000/svg" width="128" height="128">
<path d="M0 0 C15.54314778 10.80552165 26.27636757 25.0390955 30.125 43.75 C30.53603505 47.71969843 30.60262446 51.63630764 30.5625 55.625 C30.55565186 56.6763916 30.54880371 57.7277832 30.54174805 58.81103516 C30.37707948 66.78790106 29.39622293 73.40315505 26.125 80.75 C25.76277344 81.62269531 25.40054688 82.49539062 25.02734375 83.39453125 C18.1049626 98.67070117 5.48462165 109.71936076 -9.87890625 115.97265625 C-25.20883762 121.6677972 -43.71101789 122.50184605 -58.875 115.75 C-59.74769531 115.38777344 -60.62039062 115.02554688 -61.51953125 114.65234375 C-76.79570117 107.7299626 -87.84436076 95.10962165 -94.09765625 79.74609375 C-99.7927972 64.41616238 -100.62684605 45.91398211 -93.875 30.75 C-93.51277344 29.87730469 -93.15054688 29.00460938 -92.77734375 28.10546875 C-85.8549626 12.82929883 -73.23462165 1.78063924 -57.87109375 -4.47265625 C-38.93392049 -11.50790437 -17.48941603 -10.43527048 0 0 Z " fill="#FBC7BB" transform="translate(97.875,8.25)"/>
<path d="M0 0 C0.66 0 1.32 0 2 0 C2.495 1.98 2.495 1.98 3 4 C3.66 4 4.32 4 5 4 C5 3.01 5 2.02 5 1 C7 1 7 1 8.625 2.5 C9.305625 3.2425 9.305625 3.2425 10 4 C10 3.34 10 2.68 10 2 C13 3 13 3 14.82421875 6.52734375 C15.45639586 7.99266374 16.07705247 9.46299521 16.6875 10.9375 C17.00783203 11.67935547 17.32816406 12.42121094 17.65820312 13.18554688 C20 18.69301373 20 18.69301373 20 21 C19.34 21.33 18.68 21.66 18 22 C19.44910679 25.76767766 21.86757012 27.86244919 24.85546875 30.4375 C26 32 26 32 25.67578125 34.1875 C25.45277344 34.785625 25.22976562 35.38375 25 36 C23.203125 36.68359375 23.203125 36.68359375 21 37 C19.296875 35.78515625 19.296875 35.78515625 17.75 34.0625 C17.22921875 33.49660156 16.7084375 32.93070313 16.171875 32.34765625 C15.78515625 31.90292969 15.3984375 31.45820312 15 31 C10.36795941 32.54401353 9.1703932 35.97312414 6.96484375 40.15234375 C5.76728142 42.84018632 5.76728142 42.84018632 6.50390625 45.00390625 C7.25694209 46.13477192 8.05015064 47.23979849 8.87890625 48.31640625 C11.04546652 51.57002115 10.55096735 54.20444714 10 58 C7.96204536 61.15554267 6.53275134 62.6672675 2.8046875 63.4765625 C0.36614495 63.62947441 -1.6225861 63.56880183 -4 63 C-6.36876426 60.74967395 -7.55847389 58.88305222 -9 56 C-9.32871094 56.5053125 -9.65742187 57.010625 -9.99609375 57.53125 C-13.73313224 62.6354977 -13.73313224 62.6354977 -17.2265625 63.640625 C-21.50983912 63.84117976 -23.51452958 63.34676458 -27.0625 60.8125 C-29 58 -29 58 -29 53 C-39.56 53 -50.12 53 -61 53 C-61.33 55.31 -61.66 57.62 -62 60 C-63.82159029 62.35288745 -65.19907636 62.85328875 -68.08984375 63.3828125 C-71.3953512 63.63581307 -73.92565028 63.7649172 -76.6953125 61.79296875 C-79.42705881 58.70999792 -80 57.15971573 -80 53 C-85.28 53 -90.56 53 -96 53 C-96 50.03 -96 47.06 -96 44 C-95.01 44 -94.02 44 -93 44 C-93 41.69 -93 39.38 -93 37 C-91.35 37 -89.7 37 -88 37 C-88 35.68 -88 34.36 -88 33 C-89.65 33 -91.3 33 -93 33 C-92.37387038 28.36664085 -92.37387038 28.36664085 -90.5859375 26.61328125 C-88.71500635 24.71009267 -87.95013648 22.95984571 -86.9375 20.5 C-85.78146627 17.71437656 -84.69076609 15.53614914 -83 13 C-81.12060547 12.65942383 -81.12060547 12.65942383 -78.8671875 12.70703125 C-78.06152344 12.71669922 -77.25585938 12.72636719 -76.42578125 12.73632812 C-75.58402344 12.76146484 -74.74226563 12.78660156 -73.875 12.8125 C-73.02550781 12.82603516 -72.17601563 12.83957031 -71.30078125 12.85351562 C-69.20025163 12.88891781 -67.10004707 12.94272599 -65 13 C-65 17.62 -65 22.24 -65 27 C-62.69 27 -60.38 27 -58 27 C-55.5625 28.5 -55.5625 28.5 -54 30 C-54 29.01 -54 28.02 -54 27 C-53.34 27 -52.68 27 -52 27 C-53.0209375 25.4840625 -53.0209375 25.4840625 -54.0625 23.9375 C-55.77382864 20.93506221 -56 19.89436186 -56 16.25 C-55 13 -55 13 -53.375 11.0625 C-50.02317947 9.56300134 -47.63019782 9.54622527 -44 10 C-41.5625 11.5 -41.5625 11.5 -40 14 C-39.3958951 19.43694413 -39.63055894 22.50741192 -43 27 C-42.34 27 -41.68 27 -41 27 C-41 31.62 -41 36.24 -41 41 C-37.37 40.67 -33.74 40.34 -30 40 C-30.5775 39.38125 -31.155 38.7625 -31.75 38.125 C-35.87622605 32.39413048 -38.6823592 26.16009791 -38 19 C-35.0653136 12.14533537 -29.85926887 8.52912351 -23.19580078 5.75390625 C-15.34181999 2.80617898 -8.37015844 0.76168797 0 3 C0 2.01 0 1.02 0 0 Z " fill="#A86042" transform="translate(99,32)"/>
<path d="M0 0 C0.66 0 1.32 0 2 0 C2.495 1.98 2.495 1.98 3 4 C3.66 4 4.32 4 5 4 C5 3.01 5 2.02 5 1 C7 1 7 1 8.625 2.5 C9.305625 3.2425 9.305625 3.2425 10 4 C10 3.34 10 2.68 10 2 C13 3 13 3 14.82421875 6.52734375 C15.45639586 7.99266374 16.07705247 9.46299521 16.6875 10.9375 C17.00783203 11.67935547 17.32816406 12.42121094 17.65820312 13.18554688 C20 18.69301373 20 18.69301373 20 21 C19.01 21.495 19.01 21.495 18 22 C19.44910679 25.76767766 21.86757012 27.86244919 24.85546875 30.4375 C26 32 26 32 25.67578125 34.1875 C25.45277344 34.785625 25.22976562 35.38375 25 36 C23.1875 36.6796875 23.1875 36.6796875 21 37 C19.4375 35.8203125 19.4375 35.8203125 18 34.125 C15.73512064 31.47853771 14.37387415 30.74823822 11 30 C10.34 29.34 9.68 28.68 9 28 C8.34 28.886875 7.68 29.77375 7 30.6875 C4.34142222 33.90978768 1.37005643 35.85656419 -2.23046875 37.921875 C-4.15837085 39.00107526 -4.15837085 39.00107526 -6 41 C-9.58317908 41.48034055 -13.20078454 41.37039028 -16.8125 41.375 C-17.81087891 41.39949219 -18.80925781 41.42398438 -19.83789062 41.44921875 C-24.19238228 41.46662511 -27.15880934 41.46080729 -31.0234375 39.34375 C-33.25058847 36.70285952 -34.52770513 34.3308691 -35.8125 31.125 C-36.23144531 30.11695312 -36.65039062 29.10890625 -37.08203125 28.0703125 C-38.36381125 23.78316747 -38.70099121 20.63733327 -36.91796875 16.47265625 C-30.6384195 7.72664747 -21.2817962 4.18004333 -11 2 C-7.12861126 1.78629277 -3.74350005 1.9989292 0 3 C0 2.01 0 1.02 0 0 Z " fill="#E68032" transform="translate(99,32)"/>
<path d="M0 0 C1.87939453 -0.34057617 1.87939453 -0.34057617 4.1328125 -0.29296875 C5.22166748 -0.28172974 5.22166748 -0.28172974 6.33251953 -0.27026367 C7.25403809 -0.24295166 8.17555664 -0.21563965 9.125 -0.1875 C13.518125 -0.0946875 13.518125 -0.0946875 18 0 C18 10.23 18 20.46 18 31 C8.76 31 -0.48 31 -10 31 C-10 28.69 -10 26.38 -10 24 C-8.35 24 -6.7 24 -5 24 C-5 22.68 -5 21.36 -5 20 C-6.65 20 -8.3 20 -10 20 C-9.37387038 15.36664085 -9.37387038 15.36664085 -7.5859375 13.61328125 C-5.71500635 11.71009267 -4.95013648 9.95984571 -3.9375 7.5 C-2.78146627 4.71437656 -1.69076609 2.53614914 0 0 Z " fill="#B02226" transform="translate(16,45)"/>
<path d="M0 0 C-0.22265625 1.859375 -0.22265625 1.859375 -1 4 C-2.99609375 5.265625 -2.99609375 5.265625 -5.4375 6.25 C-6.64212891 6.75273438 -6.64212891 6.75273438 -7.87109375 7.265625 C-10 8 -10 8 -12 8 C-11.67 8.763125 -11.34 9.52625 -11 10.3125 C-10 13 -10 13 -10 16 C-9.25234375 15.6390625 -8.5046875 15.278125 -7.734375 14.90625 C-6.74953125 14.4421875 -5.7646875 13.978125 -4.75 13.5 C-3.77546875 13.0359375 -2.8009375 12.571875 -1.796875 12.09375 C1 11 1 11 5 11 C5.66 12.98 6.32 14.96 7 17 C5.21046815 17.83790789 3.41830305 18.67019396 1.625 19.5 C0.62726563 19.9640625 -0.37046875 20.428125 -1.3984375 20.90625 C-4 22 -4 22 -6 22 C-5.01 24.31 -4.02 26.62 -3 29 C1.15570403 27.69827309 1.15570403 27.69827309 5.0625 25.8125 C7.66680817 24.72037077 9.33322955 25.25923043 12 26 C12.33 27.32 12.66 28.64 13 30 C14.65 29.67 16.3 29.34 18 29 C16.80810547 30.96679688 16.80810547 30.96679688 15 33 C12.71923828 33.51757812 12.71923828 33.51757812 10.0703125 33.53125 C8.62978516 33.53898437 8.62978516 33.53898437 7.16015625 33.546875 C6.15855469 33.53140625 5.15695313 33.5159375 4.125 33.5 C2.63419922 33.52320312 2.63419922 33.52320312 1.11328125 33.546875 C-3.21925784 33.52367533 -6.18258552 33.4504768 -10.01953125 31.3359375 C-12.25485602 28.69940059 -13.52703403 26.33254366 -14.8125 23.125 C-15.23144531 22.11695312 -15.65039062 21.10890625 -16.08203125 20.0703125 C-17.07391621 16.75277386 -17.4286315 14.43817184 -17 11 C-15.42578125 8.296875 -15.42578125 8.296875 -13.3125 5.75 C-12.62800781 4.89921875 -11.94351563 4.0484375 -11.23828125 3.171875 C-7.75544403 -0.20763197 -4.68427365 -1.73491617 0 0 Z " fill="#E38235" transform="translate(78,40)"/>
<path d="M0 0 C2.4375 1.5 2.4375 1.5 4 4 C4.6041049 9.43694413 4.36944106 12.50741192 1 17 C1.66 17 2.32 17 3 17 C3.3690205 28.52164009 3.3690205 28.52164009 1 34 C-2.3 34 -5.6 34 -9 34 C-10.22517308 28.33357449 -10.09228867 22.76291482 -10 17 C-9.34 17 -8.68 17 -8 17 C-8.680625 15.989375 -9.36125 14.97875 -10.0625 13.9375 C-11.77382864 10.93506221 -12 9.89436186 -12 6.25 C-11 3 -11 3 -9.375 1.0625 C-6.02317947 -0.43699866 -3.63019782 -0.45377473 0 0 Z " fill="#CC2127" transform="translate(55,42)"/>
<path d="M0 0 C0.66 0 1.32 0 2 0 C2.33 1.32 2.66 2.64 3 4 C3.66 4 4.32 4 5 4 C5 3.01 5 2.02 5 1 C7 1 7 1 8.625 2.5 C9.07875 2.995 9.5325 3.49 10 4 C10 3.34 10 2.68 10 2 C13 3 13 3 14.82421875 6.52734375 C15.45639586 7.99266374 16.07705247 9.46299521 16.6875 10.9375 C17.00783203 11.67935547 17.32816406 12.42121094 17.65820312 13.18554688 C20 18.69301373 20 18.69301373 20 21 C19.34 21.33 18.68 21.66 18 22 C19.44910679 25.76767766 21.86757012 27.86244919 24.85546875 30.4375 C26 32 26 32 25.67578125 34.1875 C25.45277344 34.785625 25.22976562 35.38375 25 36 C23.1875 36.6796875 23.1875 36.6796875 21 37 C19.4375 35.8203125 19.4375 35.8203125 18 34.125 C15.99180923 31.62523224 15.99180923 31.62523224 13.0546875 30.75317383 C11 30 11 30 9.69140625 27.62329102 C9.13259766 26.07919556 9.13259766 26.07919556 8.5625 24.50390625 C8.14226562 23.38822266 7.72203125 22.27253906 7.2890625 21.12304688 C6.86367187 19.94806641 6.43828125 18.77308594 6 17.5625 C5.15876799 15.24656278 4.30514261 12.93507901 3.4375 10.62890625 C3.06496094 9.59838135 2.69242187 8.56785645 2.30859375 7.50610352 C0.85372698 4.71987079 -0.0829593 4.023354 -3 3 C-2.01 3 -1.02 3 0 3 C0 2.01 0 1.02 0 0 Z " fill="#E49766" transform="translate(99,32)"/>
<path d="M0 0 C4.54855857 -0.17837485 7.9429354 -0.13989059 12 2 C13.33374023 3.99951172 13.33374023 3.99951172 14.30859375 6.4296875 C14.66244141 7.30753906 15.01628906 8.18539062 15.38085938 9.08984375 C15.90389648 10.46849609 15.90389648 10.46849609 16.4375 11.875 C16.81326172 12.78636719 17.18902344 13.69773437 17.57617188 14.63671875 C20.22403715 21.39743645 20.22403715 21.39743645 19.21118164 24.12158203 C17.62645543 26.57932916 15.94343577 28.81363476 14 31 C13.34 31 12.68 31 12 31 C10.28405593 27.07029033 8.57526954 23.13757047 6.87304688 19.2019043 C6.29297474 17.86348841 5.7109555 16.52591464 5.12695312 15.18920898 C4.28782991 13.26764537 3.4557568 11.34316156 2.625 9.41796875 C2.12226562 8.26063232 1.61953125 7.1032959 1.1015625 5.91088867 C0 3 0 3 0 0 Z " fill="#CB6E2E" transform="translate(89,35)"/>
<path d="M0 0 C3.42156426 0.71052645 4.81183604 1.6124098 6.9375 4.40234375 C7.79690148 8.98074812 7.75626368 12.90721007 5.5 17.02734375 C1.63643685 19.10047519 -1.78310261 19.26279198 -6.0625 18.40234375 C-9.11317422 16.41006671 -10.65676669 15.06551501 -11.53515625 11.46484375 C-11.82491935 7.5418971 -11.28136932 5.73064773 -9.0625 2.40234375 C-5.71648273 0.17166557 -3.93385643 -0.30546991 0 0 Z " fill="#2B2A3F" transform="translate(81.0625,76.59765625)"/>
<path d="M0 0 C2.9838283 1.98921886 4.60276841 3.38502568 5.4765625 6.9375 C5.75608948 10.82145378 5.2079849 12.67795887 3.0625 16 C-1.05158687 18.68675061 -4.21694255 18.91913231 -9 18 C-11.5625 16.625 -11.5625 16.625 -13 14 C-13.59691632 10.54477285 -13.64767848 7.45046409 -13 4 C-9.62873596 -0.42478405 -5.25679506 -1.19761662 0 0 Z " fill="#2C2A3F" transform="translate(33,77)"/>
<path d="M0 0 C3.55247432 0.87379409 4.94828114 2.4927342 6.9375 5.4765625 C7.63619998 8.31717881 7.630647 10.63523266 6.9375 13.4765625 C4.89954536 16.63210517 3.47025134 18.14383 -0.2578125 18.953125 C-4.30129543 19.20667674 -6.37941212 19.00970426 -9.625 16.4765625 C-11.46722331 12.63192254 -12.01521277 9.65838138 -11.0625 5.4765625 C-8.05531939 0.96579158 -5.26030565 -0.3785826 0 0 Z " fill="#2A293E" transform="translate(102.0625,76.5234375)"/>
<path d="M0 0 C0.99 0.99 1.98 1.98 3 3 C1.18640086 8.11105211 -1.26203406 12.07166131 -4 17 C-19.18 17 -34.36 17 -50 17 C-50 16.01 -50 15.02 -50 14 C-48.97116699 13.99589111 -47.94233398 13.99178223 -46.88232422 13.98754883 C-43.0463731 13.96569212 -39.21143824 13.91133647 -35.37597656 13.84741211 C-33.71950051 13.82428871 -32.06287862 13.80984968 -30.40625 13.80444336 C-28.01731079 13.79511157 -25.63064721 13.75403536 -23.2421875 13.70703125 C-22.50757294 13.7109639 -21.77295837 13.71489655 -21.01608276 13.71894836 C-15.22022175 13.55637086 -13.02424451 11.81805531 -9 8 C-7.66666667 7.66666667 -6.33333333 7.33333333 -5 7 C-3.89163577 5.11683841 -3.89163577 5.11683841 -3 3 C-1.375 1.25 -1.375 1.25 0 0 Z " fill="#38344C" transform="translate(108,59)"/>
<path d="M0 0 C2.4375 1.5 2.4375 1.5 4 4 C4.61014545 6.8089715 4.65360928 9.19636021 4 12 C1.9375 14.5625 1.9375 14.5625 -1 16 C-5.26438773 16.07481382 -7.23718151 15.64839572 -10.5 12.875 C-12.48799759 9.06467129 -12.20899436 7.08035596 -11 3 C-7.92160879 -0.67038952 -4.56677188 -0.57084649 0 0 Z " fill="#E78032" transform="translate(55,42)"/>
<path d="M0 0 C9.24 0 18.48 0 28 0 C28 0.33 28 0.66 28 1 C24.97265625 1.68359375 24.97265625 1.68359375 21.9453125 2.3671875 C19.79280036 2.90474428 19.79280036 2.90474428 18 5 C17.54188325 6.97235333 17.54188325 6.97235333 17.375 9.125 C17.25125 10.40375 17.1275 11.6825 17 13 C16.67 11.68 16.34 10.36 16 9 C10.72 9 5.44 9 0 9 C0 6.03 0 3.06 0 0 Z " fill="#A1583C" transform="translate(3,76)"/>
<path d="M0 0 C2.43800959 -0.08038534 4.81520377 -0.02149521 7.25244141 0.10009766 C10.16056641 0.20322266 13.06869141 0.30634766 16.06494141 0.41259766 C16.06494141 10.64259766 16.06494141 20.87259766 16.06494141 31.41259766 C15.07494141 31.41259766 14.08494141 31.41259766 13.06494141 31.41259766 C13.06494141 27.45259766 13.06494141 23.49259766 13.06494141 19.41259766 C11.08494141 19.41259766 9.10494141 19.41259766 7.06494141 19.41259766 C7.06494141 18.42259766 7.06494141 17.43259766 7.06494141 16.41259766 C9.04494141 16.41259766 11.02494141 16.41259766 13.06494141 16.41259766 C13.06494141 12.12259766 13.06494141 7.83259766 13.06494141 3.41259766 C10.94056641 3.53634766 8.81619141 3.66009766 6.62744141 3.78759766 C4.835 3.89201172 4.835 3.89201172 3.00634766 3.99853516 C2.03568359 4.13517578 1.06501953 4.27181641 0.06494141 4.41259766 C-0.26505859 5.07259766 -0.59505859 5.73259766 -0.93505859 6.41259766 C-2.25505859 6.08259766 -3.57505859 5.75259766 -4.93505859 5.41259766 C-3.87542434 2.57349322 -3.12682281 0.66670837 0 0 Z " fill="#D82027" transform="translate(17.93505859375,44.58740234375)"/>
<path d="M0 0 C7 0 7 0 9.4375 1.25 C11 3 11 3 11 7 C10.34 7 9.68 7 9 7 C9 8.65 9 10.3 9 12 C9.66 12 10.32 12 11 12 C11 13.65 11 15.3 11 17 C7.37 17 3.74 17 0 17 C0 11.39 0 5.78 0 0 Z " fill="#2D2B41" transform="translate(34,59)"/>
<path d="M0 0 C3.0390625 -0.29296875 3.0390625 -0.29296875 6.625 -0.1875 C7.81351563 -0.16042969 9.00203125 -0.13335937 10.2265625 -0.10546875 C11.14179688 -0.07066406 12.05703125 -0.03585938 13 0 C13 3.63 13 7.26 13 11 C8.05 11 3.1 11 -2 11 C-2.25 3.375 -2.25 3.375 0 0 Z " fill="#7DBCE1" transform="translate(18,48)"/>
<path d="M0 0 C2 0 2 0 3.625 1.5 C4.07875 1.995 4.5325 2.49 5 3 C5 2.34 5 1.68 5 1 C8 2 8 2 9.82421875 5.52734375 C10.45639586 6.99266374 11.07705247 8.46299521 11.6875 9.9375 C12.00783203 10.67935547 12.32816406 11.42121094 12.65820312 12.18554688 C15 17.69301373 15 17.69301373 15 20 C13.68 20 12.36 20 11 20 C11 21.32 11 22.64 11 24 C10.34 24 9.68 24 9 24 C7.87401363 21.43792942 6.74918012 18.87536301 5.625 16.3125 C5.30789062 15.59126953 4.99078125 14.87003906 4.6640625 14.12695312 C3.76993504 12.08722486 2.88331202 10.04443144 2 8 C1.59523438 7.06542969 1.19046875 6.13085938 0.7734375 5.16796875 C0 3 0 3 0 0 Z " fill="#E79864" transform="translate(104,33)"/>
<path d="M0 0 C1.25664978 2.90600261 2 4.79604584 2 8 C0.23494565 8.86604534 -1.53728074 9.71748642 -3.3125 10.5625 C-4.29863281 11.03816406 -5.28476563 11.51382813 -6.30078125 12.00390625 C-9 13 -9 13 -12 12 C-13.64820195 9.39757586 -14 8.13751221 -14 5 C-12.23244474 4.15973604 -10.46082737 3.32801278 -8.6875 2.5 C-7.70136719 2.0359375 -6.71523437 1.571875 -5.69921875 1.09375 C-3 0 -3 0 0 0 Z " fill="#3C3749" transform="translate(86,57)"/>
<path d="M0 0 C1.1875 3.0625 1.1875 3.0625 2 6 C0.2335343 7.0076952 -1.53833823 8.00591714 -3.3125 9 C-4.79169922 9.8353125 -4.79169922 9.8353125 -6.30078125 10.6875 C-9 12 -9 12 -12 12 C-13.25664978 9.09399739 -14 7.20395416 -14 4 C-12.23494565 3.13395466 -10.46271926 2.28251358 -8.6875 1.4375 C-7.70136719 0.96183594 -6.71523437 0.48617187 -5.69921875 -0.00390625 C-3 -1 -3 -1 0 0 Z " fill="#3C3649" transform="translate(80,44)"/>
<path d="M0 0 C0.66 1.98 1.32 3.96 2 6 C0.23244474 6.84026396 -1.53917263 7.67198722 -3.3125 8.5 C-4.29863281 8.9640625 -5.28476563 9.428125 -6.30078125 9.90625 C-9 11 -9 11 -12 11 C-12.66 9.02 -13.32 7.04 -14 5 C-12.421924 4.15675328 -10.8372958 3.32576082 -9.25 2.5 C-8.36828125 2.0359375 -7.4865625 1.571875 -6.578125 1.09375 C-4 0 -4 0 0 0 Z " fill="#EFB535" transform="translate(83,51)"/>
<path d="M0 0 C0.66 0 1.32 0 2 0 C2.020625 0.680625 2.04125 1.36125 2.0625 2.0625 C3.29944043 5.93824669 5.55880844 7.65012659 8.6015625 10.25390625 C9.06304687 10.83011719 9.52453125 11.40632813 10 12 C9.7109375 14.21484375 9.7109375 14.21484375 9 16 C7.26171875 16.7265625 7.26171875 16.7265625 5 17 C2.89453125 15.5234375 2.89453125 15.5234375 0.8125 13.375 C0.11769531 12.68148437 -0.57710938 11.98796875 -1.29296875 11.2734375 C-3.15868166 8.78866653 -3.64090831 7.05495911 -4 4 C-2.68 4.33 -1.36 4.66 0 5 C-0.2784375 4.0409375 -0.2784375 4.0409375 -0.5625 3.0625 C-0.706875 2.381875 -0.85125 1.70125 -1 1 C-0.67 0.67 -0.34 0.34 0 0 Z " fill="#383349" transform="translate(115,52)"/>
<path d="M0 0 C0.33 0 0.66 0 1 0 C1.83211276 5.03854106 2.1078534 9.8125662 2.0625 14.9375 C2.05798828 15.62134766 2.05347656 16.30519531 2.04882812 17.00976562 C2.0371956 18.67321604 2.01926694 20.3366205 2 22 C-0.31 22 -2.62 22 -5 22 C-5 19.69 -5 17.38 -5 15 C-3.35 15 -1.7 15 0 15 C0 13.68 0 12.36 0 11 C-1.65 11 -3.3 11 -5 11 C-4.48847632 7.21472479 -3.79154158 5.55891312 -1 3 C-0.67 2.01 -0.34 1.02 0 0 Z " fill="#D02229" transform="translate(11,54)"/>
<path d="M0 0 C10.56 0 21.12 0 32 0 C32 0.99 32 1.98 32 3 C21.44 3 10.88 3 0 3 C0 2.01 0 1.02 0 0 Z " fill="#A25139" transform="translate(38,82)"/>
<path d="M0 0 C0.33 1.32 0.66 2.64 1 4 C2.65 3.67 4.3 3.34 6 3 C5.04296875 5.015625 5.04296875 5.015625 3 7 C0.07123712 7.37590062 -2.76039598 7.05255546 -5.6875 6.75 C-6.48478516 6.68425781 -7.28207031 6.61851563 -8.10351562 6.55078125 C-10.07066607 6.38587043 -12.03564122 6.19537406 -14 6 C-12.84472689 2.53418066 -12.36913774 2.32129495 -9.25 0.75 C-5.80837551 -0.88415264 -3.69524975 -1.38571866 0 0 Z " fill="#F0B536" transform="translate(90,66)"/>
<path d="M0 0 C9.24 0 18.48 0 28 0 C28 0.99 28 1.98 28 3 C27.67 2.67 27.34 2.34 27 2 C21.44171328 1.43231668 21.44171328 1.43231668 16.5625 3.625 C14.71234171 6.4372406 14.30249079 8.67260127 14 12 C13.01 12.33 12.02 12.66 11 13 C10.9175 11.741875 10.835 10.48375 10.75 9.1875 C10.38123528 6.3283105 10.24371146 5.27981687 8.3125 3.0625 C5.55279949 1.79452949 3.00800814 1.34181911 0 1 C0 0.67 0 0.34 0 0 Z " fill="#985941" transform="translate(77,76)"/>
<path d="M0 0 C2.97 0 5.94 0 9 0 C9 0.66 9 1.32 9 2 C7.35 2 5.7 2 4 2 C4 5.3 4 8.6 4 12 C2.35 12 0.7 12 -1 12 C-1.33 8.7 -1.66 5.4 -2 2 C-1.34 2 -0.68 2 0 2 C0 1.34 0 0.68 0 0 Z " fill="#AF242A" transform="translate(47,57)"/>
<path d="M0 0 C0.86625 0.3403125 0.86625 0.3403125 1.75 0.6875 C0.76 1.491875 0.76 1.491875 -0.25 2.3125 C-2.51833699 4.56718669 -2.51833699 4.56718669 -2.625 7.75 C-2.44767963 10.87292374 -2.44767963 10.87292374 -0.25 13.6875 C1.80003955 14.87982613 1.80003955 14.87982613 3.75 15.6875 C-0.30886955 15.45333445 -2.60661366 15.23437839 -5.75 12.5625 C-7.73799759 8.75217129 -7.45899436 6.76785596 -6.25 2.6875 C-4.09225727 0.30654251 -3.21839934 -0.44699991 0 0 Z " fill="#CE7436" transform="translate(50.25,42.3125)"/>
<path d="M0 0 C-0.2265625 1.859375 -0.2265625 1.859375 -1 4 C-2.9609375 5.265625 -2.9609375 5.265625 -5.375 6.25 C-6.56222656 6.75273438 -6.56222656 6.75273438 -7.7734375 7.265625 C-10 8 -10 8 -13 8 C-9.83211679 1.4379562 -9.83211679 1.4379562 -6.625 -0.25 C-3.87266632 -1.03638105 -2.64036353 -0.97791242 0 0 Z " fill="#F0B63A" transform="translate(78,40)"/>
<path d="M0 0 C2.625 0.375 2.625 0.375 5 1 C5.625 3.375 5.625 3.375 6 6 C5.34 6.66 4.68 7.32 4 8 C1.375 7.625 1.375 7.625 -1 7 C-1.625 4.625 -1.625 4.625 -2 2 C-1.34 1.34 -0.68 0.68 0 0 Z " fill="#DEDEE1" transform="translate(98,82)"/>
<path d="M0 0 C0.598125 0.226875 1.19625 0.45375 1.8125 0.6875 C2.4375 3.0625 2.4375 3.0625 2.8125 5.6875 C2.1525 6.3475 1.4925 7.0075 0.8125 7.6875 C-1.8125 7.3125 -1.8125 7.3125 -4.1875 6.6875 C-4.875 4.875 -4.875 4.875 -5.1875 2.6875 C-3.58493056 0.24147296 -2.95482043 -0.4221172 0 0 Z " fill="#E3E3E5" transform="translate(80.1875,82.3125)"/>
<path d="M0 0 C3.3 0 6.6 0 10 0 C10 1.65 10 3.3 10 5 C6.7 5 3.4 5 0 5 C0 3.35 0 1.7 0 0 Z " fill="#B22226" transform="translate(46,71)"/>
<path d="M0 0 C2 0.125 2 0.125 4 1 C5.25 3.0625 5.25 3.0625 6 5 C5.01 6.485 5.01 6.485 4 8 C2.35 7.67 0.7 7.34 -1 7 C-1.625 4.625 -1.625 4.625 -2 2 C-1.34 1.34 -0.68 0.68 0 0 Z " fill="#E7E7EA" transform="translate(27,82)"/>
<path d="M0 0 C3 1 3 1 4.421875 3.6171875 C4.86015625 4.69226562 5.2984375 5.76734375 5.75 6.875 C6.19859375 7.94492187 6.6471875 9.01484375 7.109375 10.1171875 C8 13 8 13 7 16 C4.27821353 13.62916021 3.11230393 11.3466216 1.8125 8 C1.46832031 7.13375 1.12414062 6.2675 0.76953125 5.375 C0 3 0 3 0 0 Z " fill="#CC7132" transform="translate(108,37)"/>
<path d="M0 0 C3 1 3 1 4.82421875 4.52734375 C5.45639586 5.99266374 6.07705247 7.46299521 6.6875 8.9375 C7.00783203 9.67935547 7.32816406 10.42121094 7.65820312 11.18554688 C10 16.69301373 10 16.69301373 10 19 C7 18 7 18 5.61328125 15.41796875 C5.18402344 14.35191406 4.75476563 13.28585938 4.3125 12.1875 C3.87550781 11.12917969 3.43851562 10.07085937 2.98828125 8.98046875 C2 6 2 6 2 2 C1.34 2 0.68 2 0 2 C0 1.34 0 0.68 0 0 Z " fill="#EB9E6D" transform="translate(109,34)"/>
<path d="M0 0 C0.66 0 1.32 0 2 0 C4.64 6.6 7.28 13.2 10 20 C9.01 20.33 8.02 20.66 7 21 C5.82504857 18.06574629 4.66149148 15.12710487 3.5 12.1875 C3.16613281 11.35412109 2.83226563 10.52074219 2.48828125 9.66210938 C2.17246094 8.85966797 1.85664062 8.05722656 1.53125 7.23046875 C1.23798828 6.49207764 0.94472656 5.75368652 0.64257812 4.99291992 C0 3 0 3 0 0 Z " fill="#CD7334" transform="translate(103,36)"/>
<path d="M0 0 C1.32 0 2.64 0 4 0 C4 3.3 4 6.6 4 10 C2.68 10 1.36 10 0 10 C0 6.7 0 3.4 0 0 Z " fill="#312B40" transform="translate(12,51)"/>
<path d="M0 0 C1.65 0 3.3 0 5 0 C5 1.32 5 2.64 5 4 C3.35 4 1.7 4 0 4 C0 2.68 0 1.36 0 0 Z " fill="#F3B034" transform="translate(6,65)"/>
<path d="M0 0 C1.98 0 3.96 0 6 0 C6 0.99 6 1.98 6 3 C4.02 3 2.04 3 0 3 C0 2.01 0 1.02 0 0 Z " fill="#EFCECE" transform="translate(25,61)"/>
<path d="M0 0 C0.66 0.33 1.32 0.66 2 1 C0.875 2.5 0.875 2.5 -1 4 C-4.1875 4.1875 -4.1875 4.1875 -7 4 C-4.61426621 2.10786631 -2.92824652 0.97608217 0 0 Z " fill="#E0B0A3" transform="translate(94,69)"/>
</svg>
