<?xml version="1.0" encoding="UTF-8"?>
<!DOCTYPE svg PUBLIC "-//W3C//DTD SVG 1.1//EN" "http://www.w3.org/Graphics/SVG/1.1/DTD/svg11.dtd">
<svg xmlns="http://www.w3.org/2000/svg" version="1.1" width="128px" height="128px" style="shape-rendering:geometricPrecision; text-rendering:geometricPrecision; image-rendering:optimizeQuality; fill-rule:evenodd; clip-rule:evenodd" xmlns:xlink="http://www.w3.org/1999/xlink">
<g><path style="opacity:1" fill="#feca06" d="M -0.5,-0.5 C 42.1667,-0.5 84.8333,-0.5 127.5,-0.5C 127.5,20.1667 127.5,40.8333 127.5,61.5C 125.284,60.7974 123.451,59.4641 122,57.5C 120.237,54.9804 118.237,52.6471 116,50.5C 115.517,49.552 115.351,48.552 115.5,47.5C 114.167,47.5 112.833,47.5 111.5,47.5C 111.719,46.325 111.386,45.325 110.5,44.5C 108.501,43.4924 106.834,42.159 105.5,40.5C 104.876,38.246 103.543,36.5794 101.5,35.5C 92.6852,34.2744 84.0186,34.2744 75.5,35.5C 72.8478,35.4095 70.5145,36.0762 68.5,37.5C 61.0835,41.2932 54.2502,45.9599 48,51.5C 47.51,52.7932 47.3433,54.1266 47.5,55.5C 47.719,56.675 47.3857,57.675 46.5,58.5C 45.8933,58.3764 45.56,58.0431 45.5,57.5C 43.8611,55.7688 42.1944,53.9355 40.5,52C 35.3158,51.1837 30.3158,51.3503 25.5,52.5C 24.596,53.209 24.2627,54.209 24.5,55.5C 23.5711,58.4119 22.2378,61.0786 20.5,63.5C 20.2172,64.2891 19.7172,64.9558 19,65.5C 18.5008,70.1548 18.3342,74.8215 18.5,79.5C 17.5386,81.2646 17.2053,83.2646 17.5,85.5C 22.9363,91.4381 28.603,97.2714 34.5,103C 35.5,103.333 36.5,103.667 37.5,104C 44.0509,112.633 51.3842,120.466 59.5,127.5C 39.5,127.5 19.5,127.5 -0.5,127.5C -0.5,84.8333 -0.5,42.1667 -0.5,-0.5 Z"/></g>
<g><path style="opacity:1" fill="#b23a12" d="M 75.5,35.5 C 84.0186,34.2744 92.6852,34.2744 101.5,35.5C 101.5,36.1667 101.5,36.8333 101.5,37.5C 94.2537,36.536 86.9204,36.2027 79.5,36.5C 78.4324,35.5655 77.099,35.2322 75.5,35.5 Z"/></g>
<g><path style="opacity:1" fill="#b62629" d="M 68.5,37.5 C 67.4245,39.1573 66.7579,40.9907 66.5,43C 66.236,51.8635 68.5694,59.8635 73.5,67C 70.3088,68.0871 66.9755,68.9204 63.5,69.5C 69.4632,70.4959 75.4632,70.8293 81.5,70.5C 74.3524,71.4916 67.0191,71.825 59.5,71.5C 54.549,72.3713 51.8824,70.3713 51.5,65.5C 51.539,62.911 50.539,60.911 48.5,59.5C 48.7678,57.901 48.4345,56.5676 47.5,55.5C 47.3433,54.1266 47.51,52.7932 48,51.5C 54.2502,45.9599 61.0835,41.2932 68.5,37.5 Z"/></g>
<g><path style="opacity:1" fill="#b7252a" d="M 79.5,36.5 C 86.9204,36.2027 94.2537,36.536 101.5,37.5C 103.29,41.2767 104.79,45.2767 106,49.5C 106.667,51.1667 106.667,52.8333 106,54.5C 102.335,57.3995 98.8354,60.3995 95.5,63.5C 94.5,63.5 93.5,63.5 92.5,63.5C 91.5,63.5 90.5,63.5 89.5,63.5C 89.7373,64.791 89.404,65.791 88.5,66.5C 87.4223,63.5651 87.4223,60.8985 88.5,58.5C 86.5856,55.4285 85.2523,52.0951 84.5,48.5C 85.0253,47.8076 85.6919,47.3076 86.5,47C 83.8003,46.0508 82.967,44.2175 84,41.5C 84.3333,41.8333 84.6667,42.1667 85,42.5C 85.6739,41.4216 86.6739,40.7549 88,40.5C 90.2702,41.8599 92.7702,42.5266 95.5,42.5C 95.5,43.5 95.5,44.5 95.5,45.5C 97.8273,45.2471 99.8273,45.9137 101.5,47.5C 102.429,46.3112 102.762,44.9778 102.5,43.5C 100.833,43.5 99.1667,43.5 97.5,43.5C 97.9899,41.0516 97.1566,39.385 95,38.5C 89.8841,39.4249 84.7175,39.7582 79.5,39.5C 79.5,38.5 79.5,37.5 79.5,36.5 Z"/></g>
<g><path style="opacity:1" fill="#c82228" d="M 75.5,35.5 C 77.099,35.2322 78.4324,35.5655 79.5,36.5C 79.5,37.5 79.5,38.5 79.5,39.5C 84.7175,39.7582 89.8841,39.4249 95,38.5C 97.1566,39.385 97.9899,41.0516 97.5,43.5C 99.1667,43.5 100.833,43.5 102.5,43.5C 102.762,44.9778 102.429,46.3112 101.5,47.5C 99.8273,45.9137 97.8273,45.2471 95.5,45.5C 95.5,44.5 95.5,43.5 95.5,42.5C 92.7702,42.5266 90.2702,41.8599 88,40.5C 86.6739,40.7549 85.6739,41.4216 85,42.5C 84.6667,42.1667 84.3333,41.8333 84,41.5C 82.967,44.2175 83.8003,46.0508 86.5,47C 85.6919,47.3076 85.0253,47.8076 84.5,48.5C 85.2523,52.0951 86.5856,55.4285 88.5,58.5C 87.4223,60.8985 87.4223,63.5651 88.5,66.5C 88.1667,67.1667 87.8333,67.8333 87.5,68.5C 85.1016,68.2594 83.1016,68.9261 81.5,70.5C 75.4632,70.8293 69.4632,70.4959 63.5,69.5C 66.9755,68.9204 70.3088,68.0871 73.5,67C 68.5694,59.8635 66.236,51.8635 66.5,43C 66.7579,40.9907 67.4245,39.1573 68.5,37.5C 70.5145,36.0762 72.8478,35.4095 75.5,35.5 Z"/></g>
<g><path style="opacity:1" fill="#e1dbd0" d="M 24.5,55.5 C 28.5,55.5 32.5,55.5 36.5,55.5C 36.5,58.1667 36.5,60.8333 36.5,63.5C 31.1667,63.5 25.8333,63.5 20.5,63.5C 22.2378,61.0786 23.5711,58.4119 24.5,55.5 Z"/></g>
<g><path style="opacity:1" fill="#eca729" d="M 25.5,52.5 C 30.3158,51.3503 35.3158,51.1837 40.5,52C 42.1944,53.9355 43.8611,55.7688 45.5,57.5C 44.3121,56.3157 43.1455,56.3157 42,57.5C 41.8171,60.3647 41.3171,63.0314 40.5,65.5C 40.6282,61.1186 40.2949,56.7853 39.5,52.5C 34.8333,52.5 30.1667,52.5 25.5,52.5 Z"/></g>
<g><path style="opacity:1" fill="#e6983d" d="M 101.5,35.5 C 103.543,36.5794 104.876,38.246 105.5,40.5C 107.404,45.2686 107.904,50.2686 107,55.5C 103.847,59.312 100.013,61.9787 95.5,63.5C 98.8354,60.3995 102.335,57.3995 106,54.5C 106.667,52.8333 106.667,51.1667 106,49.5C 104.79,45.2767 103.29,41.2767 101.5,37.5C 101.5,36.8333 101.5,36.1667 101.5,35.5 Z"/></g>
<g><path style="opacity:1" fill="#d9aa29" d="M 105.5,40.5 C 106.834,42.159 108.501,43.4924 110.5,44.5C 111.386,45.325 111.719,46.325 111.5,47.5C 112.833,47.5 114.167,47.5 115.5,47.5C 115.351,48.552 115.517,49.552 116,50.5C 118.237,52.6471 120.237,54.9804 122,57.5C 123.451,59.4641 125.284,60.7974 127.5,61.5C 127.5,83.5 127.5,105.5 127.5,127.5C 104.833,127.5 82.1667,127.5 59.5,127.5C 51.3842,120.466 44.0509,112.633 37.5,104C 36.5,103.667 35.5,103.333 34.5,103C 28.603,97.2714 22.9363,91.4381 17.5,85.5C 21.5662,85.693 25.5662,85.3597 29.5,84.5C 30.8999,85.0998 31.8999,86.0998 32.5,87.5C 35.5594,92.6452 39.8927,93.8118 45.5,91C 46.8228,90.1841 47.4894,89.0174 47.5,87.5C 47.5,86.5 47.5,85.5 47.5,84.5C 55.8333,84.5 64.1667,84.5 72.5,84.5C 72.7474,89.0764 75.0807,91.743 79.5,92.5C 82.0608,93.831 84.5608,93.4977 87,91.5C 87.4828,90.552 87.6495,89.552 87.5,88.5C 88.9587,88.4326 90.2921,88.7659 91.5,89.5C 91.5106,91.0174 92.1772,92.1841 93.5,93C 95.7249,94.1306 98.0583,94.9639 100.5,95.5C 104.047,93.1162 106.713,89.9495 108.5,86C 109.448,85.5172 110.448,85.3505 111.5,85.5C 111.975,82.9179 111.308,80.9179 109.5,79.5C 108.167,79.5 106.833,79.5 105.5,79.5C 105.5,77.5 105.5,75.5 105.5,73.5C 101.167,73.5 96.8333,73.5 92.5,73.5C 92.5,70.8333 92.5,68.1667 92.5,65.5C 92.5,64.8333 92.5,64.1667 92.5,63.5C 93.5,63.5 94.5,63.5 95.5,63.5C 100.013,61.9787 103.847,59.312 107,55.5C 107.904,50.2686 107.404,45.2686 105.5,40.5 Z"/></g>
<g><path style="opacity:1" fill="#554b4b" d="M 48.5,59.5 C 50.539,60.911 51.539,62.911 51.5,65.5C 49.1016,65.2594 47.1016,65.9261 45.5,67.5C 44.6204,65.8632 43.9537,64.0299 43.5,62C 43.8361,60.9701 44.5028,60.4701 45.5,60.5C 46.609,60.4431 47.609,60.1098 48.5,59.5 Z"/></g>
<g><path style="opacity:1" fill="#666137" d="M 45.5,60.5 C 44.5028,60.4701 43.8361,60.9701 43.5,62C 43.9537,64.0299 44.6204,65.8632 45.5,67.5C 45.5,68.8333 45.5,70.1667 45.5,71.5C 44.5,70.1667 43.5,70.1667 42.5,71.5C 42.1744,67.1161 42.5078,62.7828 43.5,58.5C 44.5223,58.8555 45.189,59.5222 45.5,60.5 Z"/></g>
<g><path style="opacity:1" fill="#823643" d="M 92.5,63.5 C 92.5,64.1667 92.5,64.8333 92.5,65.5C 91.078,66.925 89.4113,67.925 87.5,68.5C 87.8333,67.8333 88.1667,67.1667 88.5,66.5C 89.404,65.791 89.7373,64.791 89.5,63.5C 90.5,63.5 91.5,63.5 92.5,63.5 Z"/></g>
<g><path style="opacity:1" fill="#c7ab39" d="M 47.5,55.5 C 48.4345,56.5676 48.7678,57.901 48.5,59.5C 47.609,60.1098 46.609,60.4431 45.5,60.5C 45.189,59.5222 44.5223,58.8555 43.5,58.5C 42.5078,62.7828 42.1744,67.1161 42.5,71.5C 42.1667,71.5 41.8333,71.5 41.5,71.5C 40.8505,69.5648 40.5172,67.5648 40.5,65.5C 41.3171,63.0314 41.8171,60.3647 42,57.5C 43.1455,56.3157 44.3121,56.3157 45.5,57.5C 45.56,58.0431 45.8933,58.3764 46.5,58.5C 47.3857,57.675 47.719,56.675 47.5,55.5 Z"/></g>
<g><path style="opacity:1" fill="#ee8323" d="M 25.5,52.5 C 30.1667,52.5 34.8333,52.5 39.5,52.5C 40.2949,56.7853 40.6282,61.1186 40.5,65.5C 40.5172,67.5648 40.8505,69.5648 41.5,71.5C 38.4273,71.3241 35.0939,71.6574 31.5,72.5C 31.5,73.8333 31.5,75.1667 31.5,76.5C 31.5,77.5 31.5,78.5 31.5,79.5C 30.5084,79.3284 29.8417,79.6618 29.5,80.5C 28.8826,80.6107 28.3826,80.944 28,81.5C 27.7216,80.5842 27.2216,79.9175 26.5,79.5C 23.8333,79.5 21.1667,79.5 18.5,79.5C 18.3342,74.8215 18.5008,70.1548 19,65.5C 19.7172,64.9558 20.2172,64.2891 20.5,63.5C 25.8333,63.5 31.1667,63.5 36.5,63.5C 36.5,60.8333 36.5,58.1667 36.5,55.5C 32.5,55.5 28.5,55.5 24.5,55.5C 24.2627,54.209 24.596,53.209 25.5,52.5 Z"/></g>
<g><path style="opacity:1" fill="#b6622d" d="M 41.5,71.5 C 41.8333,71.5 42.1667,71.5 42.5,71.5C 42.5858,72.4959 42.2524,73.3292 41.5,74C 37.912,74.1471 34.5787,74.9805 31.5,76.5C 31.5,75.1667 31.5,73.8333 31.5,72.5C 35.0939,71.6574 38.4273,71.3241 41.5,71.5 Z"/></g>
<g><path style="opacity:1" fill="#d2a931" d="M 51.5,65.5 C 51.8824,70.3713 54.549,72.3713 59.5,71.5C 59.5,72.1667 59.5,72.8333 59.5,73.5C 54.3814,74.1031 49.7147,73.4364 45.5,71.5C 45.5,70.1667 45.5,68.8333 45.5,67.5C 47.1016,65.9261 49.1016,65.2594 51.5,65.5 Z"/></g>
<g><path style="opacity:1" fill="#464d47" d="M 92.5,65.5 C 92.5,68.1667 92.5,70.8333 92.5,73.5C 81.5,73.5 70.5,73.5 59.5,73.5C 59.5,72.8333 59.5,72.1667 59.5,71.5C 67.0191,71.825 74.3524,71.4916 81.5,70.5C 83.1016,68.9261 85.1016,68.2594 87.5,68.5C 89.4113,67.925 91.078,66.925 92.5,65.5 Z"/></g>
<g><path style="opacity:1" fill="#604b1b" d="M 92.5,73.5 C 96.8333,73.5 101.167,73.5 105.5,73.5C 105.5,75.5 105.5,77.5 105.5,79.5C 104.833,79.5 104.5,79.1667 104.5,78.5C 104.5,77.1667 104.5,75.8333 104.5,74.5C 100.298,74.8168 96.2984,74.4834 92.5,73.5 Z"/></g>
<g><path style="opacity:1" fill="#1b1a1e" d="M 45.5,71.5 C 49.7147,73.4364 54.3814,74.1031 59.5,73.5C 70.5,73.5 81.5,73.5 92.5,73.5C 96.2984,74.4834 100.298,74.8168 104.5,74.5C 104.5,75.8333 104.5,77.1667 104.5,78.5C 102.714,77.278 100.714,76.6113 98.5,76.5C 95.634,77.7593 92.634,78.7593 89.5,79.5C 86.738,78.5431 83.9047,77.8765 81,77.5C 77.4581,78.1134 73.9581,78.7801 70.5,79.5C 69.1667,79.5 67.8333,79.5 66.5,79.5C 66.7373,80.791 66.404,81.791 65.5,82.5C 65.5,81.5 65.5,80.5 65.5,79.5C 59.5,79.5 53.5,79.5 47.5,79.5C 44.9684,77.8256 42.1351,76.8256 39,76.5C 36.5773,77.6257 34.0773,78.6257 31.5,79.5C 31.5,78.5 31.5,77.5 31.5,76.5C 34.5787,74.9805 37.912,74.1471 41.5,74C 42.2524,73.3292 42.5858,72.4959 42.5,71.5C 43.5,70.1667 44.5,70.1667 45.5,71.5 Z"/></g>
<g><path style="opacity:1" fill="#414948" d="M 104.5,78.5 C 104.5,79.1667 104.833,79.5 105.5,79.5C 106.833,79.5 108.167,79.5 109.5,79.5C 109.5,81.1667 109.5,82.8333 109.5,84.5C 108.5,84.5 107.5,84.5 106.5,84.5C 105.5,91.6521 101.5,94.1521 94.5,92C 93.6266,90.955 92.6266,90.1217 91.5,89.5C 89.7385,83.2743 87.9052,83.6076 86,90.5C 85.3292,91.2524 84.4959,91.5858 83.5,91.5C 81.4727,91.6621 79.4727,91.4955 77.5,91C 76.1772,90.1841 75.5106,89.0174 75.5,87.5C 77.8357,89.3907 80.5024,89.8907 83.5,89C 86.9631,83.1322 85.2965,80.1322 78.5,80C 76.8588,81.129 75.8588,82.629 75.5,84.5C 72.2033,84.3683 70.5367,82.7016 70.5,79.5C 73.9581,78.7801 77.4581,78.1134 81,77.5C 83.9047,77.8765 86.738,78.5431 89.5,79.5C 92.634,78.7593 95.634,77.7593 98.5,76.5C 100.714,76.6113 102.714,77.278 104.5,78.5 Z"/></g>
<g><path style="opacity:1" fill="#293337" d="M 47.5,79.5 C 53.5,79.5 59.5,79.5 65.5,79.5C 65.5,80.5 65.5,81.5 65.5,82.5C 59.69,83.4896 53.69,83.8229 47.5,83.5C 46.5946,82.2976 46.5946,80.9643 47.5,79.5 Z"/></g>
<g><path style="opacity:1" fill="#473e23" d="M 70.5,79.5 C 70.5367,82.7016 72.2033,84.3683 75.5,84.5C 75.5,85.5 75.5,86.5 75.5,87.5C 75.5106,89.0174 76.1772,90.1841 77.5,91C 79.4727,91.4955 81.4727,91.6621 83.5,91.5C 82.4324,92.4345 81.099,92.7678 79.5,92.5C 75.0807,91.743 72.7474,89.0764 72.5,84.5C 64.1667,84.5 55.8333,84.5 47.5,84.5C 47.5,84.1667 47.5,83.8333 47.5,83.5C 53.69,83.8229 59.69,83.4896 65.5,82.5C 66.404,81.791 66.7373,80.791 66.5,79.5C 67.8333,79.5 69.1667,79.5 70.5,79.5 Z"/></g>
<g><path style="opacity:1" fill="#b2c0bb" d="M 75.5,87.5 C 75.5,86.5 75.5,85.5 75.5,84.5C 75.8588,82.629 76.8588,81.129 78.5,80C 85.2965,80.1322 86.9631,83.1322 83.5,89C 80.5024,89.8907 77.8357,89.3907 75.5,87.5 Z"/></g>
<g><path style="opacity:1" fill="#bbc6c6" d="M 96.5,79.5 C 101.813,79.6438 103.979,82.3105 103,87.5C 101.488,89.9574 100.154,89.9574 99,87.5C 96.9179,90.1496 95.2512,89.8163 94,86.5C 93.3333,85.1667 93.3333,83.8333 94,82.5C 95.045,81.6266 95.8783,80.6266 96.5,79.5 Z"/></g>
<g><path style="opacity:1" fill="#5b5225" d="M 18.5,79.5 C 18.5,81.1667 18.5,82.8333 18.5,84.5C 21.1667,84.5 23.8333,84.5 26.5,84.5C 26.5,82.8333 26.5,81.1667 26.5,79.5C 27.2216,79.9175 27.7216,80.5842 28,81.5C 28.3826,80.944 28.8826,80.6107 29.5,80.5C 29.5,81.8333 29.5,83.1667 29.5,84.5C 25.5662,85.3597 21.5662,85.693 17.5,85.5C 17.2053,83.2646 17.5386,81.2646 18.5,79.5 Z"/></g>
<g><path style="opacity:1" fill="#3a4e55" d="M 18.5,79.5 C 21.1667,79.5 23.8333,79.5 26.5,79.5C 26.5,81.1667 26.5,82.8333 26.5,84.5C 23.8333,84.5 21.1667,84.5 18.5,84.5C 18.5,82.8333 18.5,81.1667 18.5,79.5 Z"/></g>
<g><path style="opacity:1" fill="#424d4d" d="M 47.5,79.5 C 46.5946,80.9643 46.5946,82.2976 47.5,83.5C 47.5,83.8333 47.5,84.1667 47.5,84.5C 47.5,85.5 47.5,86.5 47.5,87.5C 41.6469,93.3592 36.8136,92.6925 33,85.5C 32.5357,86.0944 32.369,86.7611 32.5,87.5C 31.8999,86.0998 30.8999,85.0998 29.5,84.5C 29.5,83.1667 29.5,81.8333 29.5,80.5C 29.8417,79.6618 30.5084,79.3284 31.5,79.5C 34.0773,78.6257 36.5773,77.6257 39,76.5C 42.1351,76.8256 44.9684,77.8256 47.5,79.5 Z"/></g>
<g><path style="opacity:1" fill="#c4ccca" d="M 37.5,79.5 C 43.5548,79.0522 45.7214,81.7189 44,87.5C 42.4877,89.9574 41.1544,89.9574 40,87.5C 37.9179,90.1496 36.2512,89.8163 35,86.5C 34.6826,83.793 35.5159,81.4597 37.5,79.5 Z"/></g>
<g><path style="opacity:1" fill="#535059" d="M 38.5,83.5 C 41.9571,83.6672 42.2904,84.6672 39.5,86.5C 38.6143,85.675 38.281,84.675 38.5,83.5 Z"/></g>
<g><path style="opacity:1" fill="#535751" d="M 97.5,83.5 C 100.957,83.6672 101.29,84.6672 98.5,86.5C 97.6143,85.675 97.281,84.675 97.5,83.5 Z"/></g>
<g><path style="opacity:1" fill="#b19848" d="M 91.5,89.5 C 90.2921,88.7659 88.9587,88.4326 87.5,88.5C 87.6495,89.552 87.4828,90.552 87,91.5C 84.5608,93.4977 82.0608,93.831 79.5,92.5C 81.099,92.7678 82.4324,92.4345 83.5,91.5C 84.4959,91.5858 85.3292,91.2524 86,90.5C 87.9052,83.6076 89.7385,83.2743 91.5,89.5 Z"/></g>
<g><path style="opacity:1" fill="#57532a" d="M 47.5,87.5 C 47.4894,89.0174 46.8228,90.1841 45.5,91C 39.8927,93.8118 35.5594,92.6452 32.5,87.5C 32.369,86.7611 32.5357,86.0944 33,85.5C 36.8136,92.6925 41.6469,93.3592 47.5,87.5 Z"/></g>
<g><path style="opacity:1" fill="#c1a245" d="M 109.5,79.5 C 111.308,80.9179 111.975,82.9179 111.5,85.5C 110.448,85.3505 109.448,85.5172 108.5,86C 106.713,89.9495 104.047,93.1162 100.5,95.5C 98.0583,94.9639 95.7249,94.1306 93.5,93C 92.1772,92.1841 91.5106,91.0174 91.5,89.5C 92.6266,90.1217 93.6266,90.955 94.5,92C 101.5,94.1521 105.5,91.6521 106.5,84.5C 107.5,84.5 108.5,84.5 109.5,84.5C 109.5,82.8333 109.5,81.1667 109.5,79.5 Z"/></g>
</svg>
